<?xml version="1.0" encoding="iso-8859-1"?>
<!-- Generator: Adobe Illustrator 18.0.0, SVG Export Plug-In . SVG Version: 6.00 Build 0)  -->
<!DOCTYPE svg PUBLIC "-//W3C//DTD SVG 1.1//EN" "http://www.w3.org/Graphics/SVG/1.1/DTD/svg11.dtd">
<svg version="1.1" id="Capa_1" xmlns="http://www.w3.org/2000/svg" xmlns:xlink="http://www.w3.org/1999/xlink" x="0px" y="0px"
	 viewBox="0 0 466.431 466.431" style="enable-background:new 0 0 466.431 466.431;" xml:space="preserve">
<path d="M465.966,102.649c-0.842-1.814-2.662-2.949-4.685-2.892L4.851,113.359c-1.96,0.059-3.706,1.258-4.463,3.068
	c-0.758,1.81-0.387,3.895,0.948,5.333l81.788,88.079v80.903c0,2.167,1.396,4.088,3.459,4.756c0.508,0.165,1.026,0.244,1.54,0.244
	c0.619,0,1.229-0.119,1.8-0.34l53.482-20.645l83.874,90.321c0.946,1.019,2.274,1.598,3.664,1.598c0.015,0,0.028,0,0.043,0
	c1.405-0.012,2.74-0.615,3.679-1.661l230.487-256.922C466.489,106.604,466.808,104.463,465.966,102.649z M235.167,192.241v-18.714
	l144.449-40.592L235.167,192.241z M230.039,164.581L44.266,122.189l376.562-11.222L230.039,164.581z M209.896,170.242
	L91.022,203.647L19.701,126.84L209.896,170.242z M93.124,213.443l132.043-37.106v20.009l-105.23,43.204
	c-0.86,0.354-1.605,0.94-2.15,1.693l-24.662,34.065V213.443z M246.387,198.445l-19.07,151.978l-96.91-104.36L246.387,198.445z
	 M257.012,194.082l186.115-76.413L237.894,346.441L257.012,194.082z M102.078,279.995l20.236-27.951l13.765,14.823L102.078,279.995z
	"/>
<g>
</g>
<g>
</g>
<g>
</g>
<g>
</g>
<g>
</g>
<g>
</g>
<g>
</g>
<g>
</g>
<g>
</g>
<g>
</g>
<g>
</g>
<g>
</g>
<g>
</g>
<g>
</g>
<g>
</g>
</svg>
